<svg xmlns="http://www.w3.org/2000/svg" width="328.475" height="257.797" viewBox="0 0 328.475 257.797"><defs><style>.a{fill:#fff;}.b{fill:#fcdc4a;}.c{fill:#211715;}</style></defs><path class="a" d="M161.307,145.609c-22.774,4.6-59.764,12.1-68.561,13.943a.951.951,0,0,0-.393,1.669c4.282,3.5,16.957,13.883,27.994,22.875l21.964,18.467c21.44-5.687,54.223-14.841,81.313-22.047l-29.008-25.473C191.3,152,183.083,144.969,180.4,142.677a2.3,2.3,0,0,0-1.946-.516C175.96,142.655,169.569,143.941,161.307,145.609Z"></path><path class="a" d="M278.121,99.639c.36-.319.705-.63,1.027-.933,5.79-5.438,14.431-16.243,15.171-32.112a46.613,46.613,0,0,0-5.972-24.316c-9.567-16.611-21.487-20.24-28.89-21.726a46.991,46.991,0,0,0-21.421.969c-14.018,3.746-21.014,12.951-22.245,15.024A32.383,32.383,0,0,0,210.8,50.473a46.146,46.146,0,0,0-.877,7.907c-.626,5.986-1.472,14.291-7.181,16.854a5.607,5.607,0,0,0-2.738,2.369c-1.536,2.888.937,4.42,2.4,6.259a9.215,9.215,0,0,1,1.8,4.048,56.974,56.974,0,0,0,.574,8.735,24.241,24.241,0,0,0,1.522,5.941,11.487,11.487,0,0,0,5.872,6.287c4.418,2,10.589,3.056,14.694,2.268a2,2,0,0,1,2.268,1.351,53.03,53.03,0,0,1,2.767,6.682l2.742,6.837c5.113-.667,31.106-3.536,34.108-3.629-.377-2.23-.605-3.6-.605-3.6a31.766,31.766,0,0,1-.383-6.753C268.571,107.324,274.277,103.036,278.121,99.639Z"></path><path class="a" d="M119.87,193.716a9.788,9.788,0,0,0-1.591.972q-1.837,1.411-3.615,2.9a2.8,2.8,0,0,0-1.064,2.791l.267.787a10.878,10.878,0,0,0-2.608,2.321,4.76,4.76,0,0,0-1.173,2.658,2.4,2.4,0,0,0,1.394,2.382l1.906.7a12.765,12.765,0,0,0-.691,1.187c-.865,1.677-.747,3.265-.045,4a3.127,3.127,0,0,0,2.641.764c.873-.16,4.757-2.246,6.207-2.8a23.8,23.8,0,0,0,19.552,4.512l6.773,1.445a149.052,149.052,0,0,1,6.453-17.473,32.462,32.462,0,0,0-7.385-11.12,3.653,3.653,0,0,0-2.073-1.113,4.031,4.031,0,0,0-2.725.478,3.793,3.793,0,0,0-2.049,2.869,8.526,8.526,0,0,0-6.957-3.613,22.623,22.623,0,0,0-7.159,1.107c-2.1.587-4.27,2.243-4.5,3.629A10.156,10.156,0,0,0,119.87,193.716Z"></path><path class="a" d="M115.743,217.124c.012-.4.035-.779.07-1.141,0,0,.035-.375.09-1,1.419-.573,4.373-2.13,5.6-2.606a23.8,23.8,0,0,0,17.96,4.805c-.057.57-.092.935-.092.935-.029.289-.074.612-.13.96a2.941,2.941,0,0,1-2.948,2.18c-4.577.18-12.7.5-17.275.645-1.72.054-3.177-1.018-3.245-2.4C115.734,218.708,115.719,217.893,115.743,217.124Z"></path><path class="a" d="M193.269,162.086a4.669,4.669,0,0,1-4.568-2.394c-.907-1.949.458-10.566,2.657-13.682.815-1.153,3.847-1.738,5.166-1.657l.891-.009a2.988,2.988,0,0,1,.129-.743,2.835,2.835,0,0,1,1.862-1.851,4.111,4.111,0,0,1,2.987.535,19.983,19.983,0,0,1,4.559,3.516s6.146,1.588,2,8.8c-1.926,3.351-4.187,11.736-6.522,12.589C199.746,168.166,193.269,162.086,193.269,162.086Z"></path><path class="a" d="M206.952,145.8a19.983,19.983,0,0,0-4.559-3.516,4.111,4.111,0,0,0-2.987-.535,2.835,2.835,0,0,0-1.862,1.851c-.8,2.414,2.058,10.556,2.321,11.429,0,0,2.717.125,4.908-3.23A12,12,0,0,0,206.952,145.8Z"></path><path class="a" d="M281.148,123.32c9.25,4.413,16.856,13.2,20.593,23.787a83.639,83.639,0,0,1,3.589,16.907c1.238,9.336,1.834,53.2-.187,68.338,0,0-27.662,6.381-65.328,5.048a105.714,105.714,0,0,1-20.9-2.7,22.122,22.122,0,0,1-10.821,7.491c-5.374,1.713-13.983,2.022-29.449-4.714-11.741-5.115-27.376-12.82-31.858-17.106,1.889-6.582,5.5-15.889,9.738-21.448,3.967.687,25.834,6.068,27.561,6.59l9.1,2.175a68.623,68.623,0,0,0,3.046-9.7c3.685-14.5,7.4-33.1,12.084-43.417,4.013-8.837,13.136-16.448,20.863-21.166,1.337-.816,3.481-1.949,4.939-2.949,0,0,8.42-4.969,23.17-6.219C269.191,123.224,281.148,123.32,281.148,123.32Z"></path><path class="a" d="M255.62,255.689c.681-12.265,2-24.447,2.782-35.972a11.11,11.11,0,0,1,8.018-9.907c14.166-4.086,34.8-10.109,49.05-14.251a8.632,8.632,0,0,1,11.012,8.953c-1.287,16.776-1.512,23.774-2.319,35.813a2,2,0,0,1-1.525,1.812l-64.546,15.6A2,2,0,0,1,255.62,255.689Z"></path><path class="a" d="M175.058,2.014C138.288,6.443,47.037,18.233,6.076,23.6a4.315,4.315,0,0,0-4.043,4.134c0,18.785,0,93.47,0,113.01a4.014,4.014,0,0,0,4.4,4.129c45.855-7.557,131.022-22.307,168.985-28.92a4.315,4.315,0,0,0,3.852-4.124c0-17.782.007-87.136.008-105.68A4,4,0,0,0,175.058,2.014Z"></path><path class="a" d="M163.217,22.791q-18.123,2.5-36.243,5.015.025,39.786.053,79.572,18.12-3.051,36.243-6.079Q163.251,62.045,163.217,22.791Z"></path><path class="a" d="M36.4,39.962c-5.316.754-12.453,1.8-16.869,2.433q.01,41.35.022,82.7c4.419-.764,11.554-2.01,16.862-2.913Q36.407,81.072,36.4,39.962Z"></path><path class="a" d="M98.422,55.127q-16.867,2.4-33.733,4.814a.88.88,0,0,0-.725.854l0,34.368a.615.615,0,0,0,.724.636L98.46,90.445a.9.9,0,0,0,.742-.857q-.021-16.915-.039-33.831A.625.625,0,0,0,98.422,55.127Z"></path><path class="b" d="M263.044,20.183c-1.226-.331-2.379-.587-3.442-.8a48.008,48.008,0,0,0-21.872.99C223.417,24.2,216.275,33.6,215.017,35.712a36.7,36.7,0,0,0-3.753,7.947,36.233,36.233,0,0,0,14.7,21.128l7.929,0a35.459,35.459,0,0,0,10.26,8.825,6.464,6.464,0,0,1,2.673-.951,5.73,5.73,0,0,1,4.723,1.328c1.789,1.669,2.327,4.772,1.906,7.22a14.431,14.431,0,0,1-8.094,11.112c1.769,7.542,2.681,10.751,2.179,17.1-.305,3.857-5.616,14.648-12.088,16.593,5.186,3.975,13.167,6.347,20.76,7.025,11.893,1.062,23.167-.8,28.6-4.3,4.424-2.85,7.487-5.063,9.416-10.035,1.022-2.635.469-6.9.086-9.365-1.4-8.994-3.916-13.824-.9-28.73a136.416,136.416,0,0,0,1.779-14.21,47.6,47.6,0,0,0-6.1-24.828C280.705,26.989,270.536,22.2,263.044,20.183Z" style="fill: rgb(208, 208, 208);"></path><path class="b" d="M155,32.175c-8.657,3.41-17.655,13.11-19.744,22.2,5.263-.767,13.643-1.991,19.773-2.88C155.022,45.576,155.006,37.415,155,32.175Z" style="fill: rgb(208, 208, 208);"></path><path class="b" d="M64.187,47.063q7.437,12.5,15.187,24.813a2.056,2.056,0,0,1-1.546,2.934Q62.767,77.072,47.7,79.34c-1.333.2-2.163-1.2-1.5-2.517q7.441-14.682,14.933-29.338A1.747,1.747,0,0,1,64.187,47.063Z" style="fill: rgb(208, 208, 208);"></path><path class="b" d="M116.689,82.614a18.686,18.686,0,0,1-.924,3.57,14.082,14.082,0,0,1-3.525,5.175,18.449,18.449,0,0,1-2.634,1.934,19.527,19.527,0,0,1-3.37,1.434,19.966,19.966,0,0,1-4.279.692,15.035,15.035,0,0,1-3.316-.357,12.234,12.234,0,0,1-2.712-1.146,11.4,11.4,0,0,1-2.007-1.7,12.265,12.265,0,0,1-1.579-2.49,15.02,15.02,0,0,1-.9-3.267,17.727,17.727,0,0,1-.03-3.786,17.728,17.728,0,0,1,.9-3.484,18.591,18.591,0,0,1,1.606-2.987,18.831,18.831,0,0,1,2.182-2.5,14.951,14.951,0,0,1,6.14-3.391,16.493,16.493,0,0,1,3.623-.54,14.008,14.008,0,0,1,3.423.389,13.007,13.007,0,0,1,2.736,1.153,12.118,12.118,0,0,1,2.162,1.788,12.357,12.357,0,0,1,1.618,2.453,13.682,13.682,0,0,1,.922,3.2A17.746,17.746,0,0,1,116.689,82.614Z" style="fill: rgb(208, 208, 208);"></path><path class="c" d="M175.058.014c-18.783,2.263-37.55,4.653-56.317,7.042Q84.232,11.448,49.734,15.92q-15.159,1.962-30.318,3.937-6.222.812-12.443,1.626c-2.88.377-5.691,1.406-6.662,4.453a15.052,15.052,0,0,0-.278,4.475q0,25.909,0,51.821,0,26.856,0,53.712c0,3.751-.623,8.5,3.486,10.425,2.387,1.119,5.315.124,7.8-.287q3.6-.6,7.21-1.2,16.22-2.706,32.43-5.466Q87.174,133.266,123.373,127q15.989-2.761,31.973-5.535,6.781-1.177,13.563-2.357l5.929-1.032c2.794-.486,5.44-1.75,6.237-4.731a18.3,18.3,0,0,0,.194-4.581V92.6q0-14.538,0-29.077,0-27.013,0-54.027a36.381,36.381,0,0,0-.055-4.032A5.992,5.992,0,0,0,175.058.014c-2.553.179-2.573,4.181,0,4,2.235-.158,2.219,2.078,2.219,3.706V22.7q0,13.968,0,27.938,0,27.271,0,54.543V109.4c0,1.237.335,2.932-.648,3.86a5.231,5.231,0,0,1-2.846.954l-3.006.524-5.982,1.04q-14.448,2.513-28.9,5.013Q100.951,126.84,66,132.816,49.1,135.7,32.2,138.555q-7.664,1.291-15.328,2.57-3.447.575-6.894,1.146l-3.273.541a2,2,0,0,1-2.479-1.146c-.466-1.075-.187-2.7-.187-3.852q0-2.149,0-4.3V122.491q0-13.881,0-27.763,0-27.937,0-55.875V29.8c0-1.31-.3-2.861.923-3.716a5.919,5.919,0,0,1,2.7-.69l2.817-.369q13.68-1.789,27.364-3.563,33.21-4.31,66.429-8.56,30.144-3.853,60.3-7.608,5.245-.646,10.492-1.28a2.063,2.063,0,0,0,2-2A2.011,2.011,0,0,0,175.058.014Z"></path><path class="c" d="M36.4,37.606c-5.7.806-11.324,1.634-16.869,2.428a2.679,2.679,0,0,0-2.071,2.645q.009,32.232.019,64.462,0,9.091,0,18.3a1.863,1.863,0,0,0,2.071,2.021c5.542-.96,11.167-1.947,16.862-2.918a2.81,2.81,0,0,0,2.135-2.708q0-32.929-.012-65.858,0-8.089,0-16.3c0-3.027-4.263-2.452-4.263.582q0,32.033.013,64.065,0,9.038,0,18.216,1.062-1.352,2.128-2.7c-5.695.967-11.321,1.95-16.863,2.907q1.036,1.007,2.078,2.014-.006-33.14-.017-66.28,0-8.133,0-16.364-1.041,1.322-2.078,2.641c5.545-.8,11.172-1.628,16.869-2.439C39.138,41.922,39.145,37.217,36.4,37.606Z"></path><path class="c" d="M155,32.175c-6.136.846-14.507,2.008-19.759,2.734.008,5.249.024,13.443.031,19.41C137.385,45.244,146.361,35.578,155,32.175Z"></path><path class="c" d="M155.016,29.91q-9.865,1.356-19.775,2.724a2.734,2.734,0,0,0-2.269,2.585c.01,6.6.024,13.069.031,19.482a1.914,1.914,0,0,0,2.269,1.874q9.9-1.454,19.773-2.9a2.7,2.7,0,0,0,2.259-2.507c-.007-6.344-.021-12.746-.028-19.3,0-2.9-4.525-2.291-4.521.619.007,6.567.021,12.981.028,19.338l2.262-2.512q-9.864,1.422-19.773,2.861,1.134.942,2.269,1.878c-.007-6.4-.021-12.854-.031-19.449q-1.134,1.288-2.269,2.574,9.9-1.374,19.775-2.749C157.925,34.02,157.93,29.509,155.016,29.91Z"></path><path class="c" d="M29.521,64.38l-3.22.467a2.664,2.664,0,0,0-2.115,2.647c0,1.129,0,2.358,0,3.536a1.88,1.88,0,0,0,2.121,2.022l3.219-.479a2.684,2.684,0,0,0,2.135-2.645c0-1.175,0-2.4,0-3.526A1.9,1.9,0,0,0,29.521,64.38Z"></path><path class="c" d="M29.522,50.939l-3.22.453a2.663,2.663,0,0,0-2.115,2.657c0,1.138,0,2.375,0,3.562a1.9,1.9,0,0,0,2.122,2.046l3.219-.462a2.674,2.674,0,0,0,2.134-2.649c0-1.184,0-2.419-.005-3.555A1.914,1.914,0,0,0,29.522,50.939Z"></path><path class="c" d="M29.52,77.731l-3.221.485a2.678,2.678,0,0,0-2.114,2.651c0,1.125,0,2.351.005,3.527A1.867,1.867,0,0,0,26.311,86.4l3.219-.5a2.7,2.7,0,0,0,2.134-2.654c0-1.173,0-2.394-.005-3.516A1.878,1.878,0,0,0,29.52,77.731Z"></path><path class="c" d="M29.518,91.06l-3.22.5a2.7,2.7,0,0,0-2.114,2.666c0,1.127,0,2.355,0,3.535a1.858,1.858,0,0,0,2.121,2l3.219-.514a2.727,2.727,0,0,0,2.134-2.674c0-1.177,0-2.4,0-3.526A1.868,1.868,0,0,0,29.518,91.06Z"></path><path class="c" d="M29.517,104.435l-3.22.52a2.725,2.725,0,0,0-2.114,2.691c0,1.134,0,2.371,0,3.56a1.858,1.858,0,0,0,2.121,2.01l3.219-.529a2.754,2.754,0,0,0,2.133-2.7c0-1.186,0-2.42,0-3.552A1.863,1.863,0,0,0,29.517,104.435Z"></path><path class="c" d="M135.568,68.983l19.149-2.889c2.91-.438,2.914-4.776,0-4.343L135.568,64.6c-2.919.435-2.924,4.823,0,4.382Z"></path><path class="c" d="M135.568,78.6l19.149-2.972c2.909-.451,2.914-4.808,0-4.361L135.568,74.2c-2.92.448-2.925,4.854,0,4.4Z"></path><path class="c" d="M135.567,88.3q9.588-1.529,19.15-3.048c2.909-.463,2.914-4.871,0-4.413l-19.149,3.015c-2.92.46-2.925,4.912,0,4.446Z"></path><path class="c" d="M135.567,98.147q9.588-1.558,19.15-3.109c2.909-.472,2.914-4.965,0-4.5q-9.555,1.538-19.15,3.084c-2.92.471-2.925,5,0,4.522Z"></path><path class="c" d="M163.217,20.481q-18.117,2.491-36.243,5a2.757,2.757,0,0,0-2.269,2.629q.021,30.934.044,61.868c0,5.829.007,11.734.009,17.771a1.923,1.923,0,0,0,2.269,1.951q18.118-3.055,36.243-6.092a2.844,2.844,0,0,0,2.252-2.679q-.015-31.344-.042-62.689c0-5.156-.007-10.39-.01-15.755,0-2.962-4.509-2.36-4.508.609q.017,30.494.043,60.988c0,5.749.007,11.587.01,17.584q1.128-1.337,2.255-2.664-18.124,3.016-36.243,6.063,1.136.966,2.27,1.938-.016-31.8-.043-63.6c0-5.221-.008-10.507-.011-15.9q-1.136,1.31-2.269,2.616,18.122-2.513,36.243-5.03C166.116,24.686,166.122,20.081,163.217,20.481Z"></path><path class="c" d="M70.114,61.44q-1.29-2.1-2.56-4.2c.65-.09,1.28-.17,1.93-.26l3.19-.45q12.87-1.83,25.75-3.65a2.273,2.273,0,0,1,.58-.01h.02a1.108,1.108,0,0,1,.19.02.037.037,0,0,1,.03.01c1.99.23,2.17,2.12,2.18,3.86,0,3.87,0,7.72.01,11.57,0,1.52,0,3.04.01,4.55a12.191,12.191,0,0,0-4.51,2.94c0-1.78,0-3.57-.01-5.35V68.38c0-2.49-.01-4.97-.01-7.47V57.59l-2.72.39q-9.15,1.305-18.21,2.61c-.25.04-.5.07-.75.11C73.524,60.94,71.814,61.19,70.114,61.44Z"></path><path class="c" d="M98.824,92.58q-.285.09-.57.15c-2.05.4-4.09.74-6.14,1.05H92.1c-2.32.35-4.63.67-6.93,1.04q-8.67,1.38-17.25,2.75c-1.07.17-2.17.41-3.24.51-2.88.27-2.92-2.26-2.92-4.46V74.96c1.46-.22,2.93-.44,4.4-.66V93.28c.89-.14,1.78-.28,2.67-.41,6-.95,12.06-1.91,18.14-2.86.93-.15,1.86-.3,2.8-.44,1.6-.26,3.2-.51,4.81-.76a8.479,8.479,0,0,0,.52.93A7.178,7.178,0,0,0,98.824,92.58Z"></path><path class="c" d="M78.6,66.13c-1.12-1.8-2.25-3.61-3.37-5.43-.85-1.38-1.71-2.78-2.56-4.17q-3.165-5.16-6.3-10.43a1.739,1.739,0,0,1-.11-.18c-.06-.09-.12-.19-.17-.28a1.937,1.937,0,0,0-.49-.56c-1.9-1.84-4.98-1.09-6.48,1.74-.57,1.08-1.11,2.17-1.66,3.26q-3.315,6.51-6.6,12.98-2.9,5.7-5.77,11.4a8.115,8.115,0,0,0-1.27,3.66c0,2.66,2.15,3.76,4.43,3.42q6.7-1.02,13.51-2.04c1.46-.23,2.93-.45,4.4-.67,2.06-.31,4.12-.63,6.19-.94,2.76-.42,7.26-.28,8.95-3.37C82.964,71.48,79.954,68.3,78.6,66.13ZM47.744,77.05c0-.06.06-.06.12-.01A.94.94,0,0,1,47.744,77.05Zm.33.64c.01,0,.1-.2.11-.21s.01-.02.02-.03C48.264,77.59,48.254,77.7,48.074,77.69ZM75.3,72.94c-3.06.46-6.1.91-9.14,1.36-1.47.22-2.94.44-4.4.66-3.48.52-6.95,1.03-10.39,1.55-.94.14-1.89.29-2.84.42.42-.74.75-1.63,1.11-2.34.9-1.76,1.79-3.52,2.69-5.29q3.255-6.39,6.54-12.8,1.335-2.595,2.67-5.21c.3-.57.59-1.14.88-1.71.06-.12.16-.27.25-.43q2.445,4.065,4.87,8.09h.01q1.275,2.1,2.56,4.2c.68,1.12,1.37,2.23,2.05,3.34q2.415,3.915,4.83,7.8C76.334,72.69,75.474,72.91,75.3,72.94Z"></path><path class="c" d="M111.144,68.31a15.425,15.425,0,0,0-9.71.02,17.908,17.908,0,0,0-4.51,2.14,16.79,16.79,0,0,0-3.14,2.64,17.054,17.054,0,0,0-4.01,16.46c.12.37.25.74.4,1.1a10.967,10.967,0,0,0,1.93,3.11h.01c2.97,3.37,7.81,4.56,12.84,3.52a18,18,0,0,0,9.48-5.22,17.611,17.611,0,0,0,4.44-9.22,1.87,1.87,0,0,0,.03-.34,1.089,1.089,0,0,0,.05-.26C119.6,75.98,116.9,70.37,111.144,68.31Zm-4.65,24.04a11.463,11.463,0,0,1-7.67.23,7.178,7.178,0,0,1-3.72-2.84,8.479,8.479,0,0,1-.52-.93,11.672,11.672,0,0,1,1.17-11.6,11.25,11.25,0,0,1,1.18-1.39,12.527,12.527,0,0,1,10.92-3.59A7.885,7.885,0,0,1,113,75.55a10.489,10.489,0,0,1,1.45,7.08,11.561,11.561,0,0,1-7.96,9.72Z"></path><path class="c" d="M154.986,197.5a42.856,42.856,0,0,0-6.146-8.615,6.238,6.238,0,0,0-5.069-2.295,6.384,6.384,0,0,0-5.03,3.063,2,2,0,0,0,3.454,2.019c.007-.012.3-.4.151-.244-.163.18.179-.158.211-.191.356-.374-.255.154.2-.164.115-.081.229-.164.348-.239.054-.034.523-.232.208-.128a3.5,3.5,0,0,1,.484-.122c.317-.057-.406-.014.185,0,.176,0,.35,0,.525.015.212.019-.155-.052.176.043s-.009-.038.165.054a3.434,3.434,0,0,1,.424.256c-.233-.169.095.1.135.137.5.48.964,1.008,1.415,1.534a40.837,40.837,0,0,1,4.714,6.9,2,2,0,1,0,3.453-2.019Z"></path><path class="c" d="M140.946,189.85c-2.4-2.786-6.289-3.754-9.836-3.442-3.62.318-8.192,1.19-10.585,4.2a2.063,2.063,0,0,0,0,2.829,2.014,2.014,0,0,0,2.828,0,6.147,6.147,0,0,1,3.107-2.039,23.293,23.293,0,0,1,4.65-.992c2.59-.22,5.237.21,7.008,2.27a2.016,2.016,0,0,0,2.828,0,2.04,2.04,0,0,0,0-2.828Z"></path><path class="c" d="M128.426,190.658c-3.41-.317-6.987-.125-10.043,1.581a30.415,30.415,0,0,0-4.241,3.195c-1.689,1.384-3.091,3.151-2.471,5.476a2,2,0,1,0,3.857-1.063c.057.214,0-.242-.019-.107-.03.166.124-.267.062-.152a1.38,1.38,0,0,1,.357-.451c.613-.569,1.29-1.081,1.943-1.6a16.523,16.523,0,0,1,3.075-2.123,12.36,12.36,0,0,1,3.55-.848,20.735,20.735,0,0,1,3.93.1,2.014,2.014,0,0,0,2-2,2.043,2.043,0,0,0-2-2Z"></path><path class="c" d="M122.644,196.193c-3.866.541-7.875,1.672-10.986,4.117a9.1,9.1,0,0,0-3.41,4.682c-.468,1.954.232,4.418,2.223,5.262a2.068,2.068,0,0,0,2.736-.717,2.015,2.015,0,0,0-.717-2.737c-.029-.012-.456-.15-.244-.092.165.045-.156-.172.037.08-.06-.079-.24-.512-.115-.14-.037-.111-.058-.228-.1-.338.116.341.007,0,.014-.165-.011.27.018-.083.047-.19.013-.047.157-.451.054-.21a3.957,3.957,0,0,1,.251-.467,8.339,8.339,0,0,1,2.689-2.548A14.318,14.318,0,0,1,118.9,201.1a30.475,30.475,0,0,1,4.808-1.053,2.012,2.012,0,0,0,1.4-2.46,2.054,2.054,0,0,0-2.461-1.4Z"></path><path class="c" d="M114.2,205.257a14.579,14.579,0,0,0-3.228,4.151c-.88,1.737-1.389,4.151-.169,5.872a4.912,4.912,0,0,0,5.187,1.791,19.575,19.575,0,0,0,3.074-1.353c.627-.3,1.253-.611,1.882-.912.277-.132.554-.263.833-.39l.379-.169c.255-.114-.564.227-.094.044a2.048,2.048,0,0,0,1.4-2.46,2.023,2.023,0,0,0-2.46-1.4c-1.964.763-3.808,1.806-5.731,2.661-.36.16.2-.079.149-.063-.076.027-.149.061-.225.089-.128.048-.269.075-.394.127-.042.017.462-.034.078-.022-.142,0-.3-.027-.437-.016.409-.034.324.063.154.011-.082-.024-.167-.039-.249-.063-.061-.018-.12-.043-.181-.06-.223-.063.365.216.075.023a1.408,1.408,0,0,0-.211-.126c.024,0,.286.278.167.131a.793.793,0,0,0-.16-.157c-.131-.085.161.181.163.211a1.114,1.114,0,0,0-.1-.175c-.125-.2.119-.042.076.182a1.46,1.46,0,0,0-.112-.448c.032.045.031.506.033.161,0-.065,0-.13,0-.2,0-.089.014-.18.011-.269-.007-.212-.021.161-.032.181a3.236,3.236,0,0,0,.129-.587c.021-.077.045-.152.07-.227.059-.178.095-.321.008-.062a6.1,6.1,0,0,1,.605-1.128q.145-.24.3-.474c.077-.116.338-.377.363-.514,0,.007-.24.3-.1.127.075-.091.148-.184.224-.274q.186-.22.382-.432c.31-.336.638-.652.976-.959a2.015,2.015,0,0,0,0-2.829,2.045,2.045,0,0,0-2.828,0Z"></path><path class="c" d="M120.127,213.828a26.123,26.123,0,0,0,21.455,4.991,2,2,0,0,0-1.063-3.857A21.8,21.8,0,0,1,122.955,211a2.066,2.066,0,0,0-2.828,0,2.013,2.013,0,0,0,0,2.829Z"></path><path class="c" d="M113.813,215.983c-.137,1.669-.365,3.77.432,5.31a5.015,5.015,0,0,0,3.57,2.5A20.323,20.323,0,0,0,122,223.8q2.187-.078,4.374-.16,4.4-.167,8.8-.341a7.24,7.24,0,0,0,4.21-1.07c1.44-1.041,1.795-2.436,1.984-4.114a2.013,2.013,0,0,0-2-2,2.047,2.047,0,0,0-2,2c-.085.751-.282,1.035-1.078,1.14-.971.129-2,.079-2.984.118q-3.467.135-6.935.267-3.265.123-6.53.233c-.551.018-1.633.207-2.014-.359a2.936,2.936,0,0,1-.094-1.145c-.012-.8.011-1.589.077-2.384.21-2.566-3.792-2.552-4,0Z"></path><path class="c" d="M121.758,182.685q-8.344-6.809-16.68-13.628l-6.859-5.611-2.542-2.079-1.04-.851a4.167,4.167,0,0,0-.528-.432c-.868-.485.6-.246-.115.737l-.718.718a6.927,6.927,0,0,1,2.216-.521q1.554-.323,3.107-.64,4-.822,8-1.637,10.7-2.184,21.406-4.354,21.4-4.343,42.8-8.658,3.387-.681,6.775-1.36c.364-.073.736-.178,1.1-.221.3-.034.071-.118.351.013a4.959,4.959,0,0,1,.969.8q3.846,3.288,7.667,6.6c1.934,1.682,4.775-1.136,2.828-2.829-2.759-2.4-5.519-4.8-8.314-7.158a4.933,4.933,0,0,0-4.334-1.332c-.395.068-.788.157-1.181.236q-3.98.8-7.959,1.6-13.206,2.66-26.407,5.336-14.82,3-29.638,6.015c-6.655,1.354-13.344,2.6-19.971,4.089a3.182,3.182,0,0,0-2.6,2.209c-.416,1.575.524,2.642,1.635,3.551l5.653,4.625q8.483,6.939,16.968,13.871l4.579,3.738a2.058,2.058,0,0,0,2.828,0,2.015,2.015,0,0,0,0-2.829Z"></path><path class="c" d="M196.524,142.353a10.146,10.146,0,0,0-6.58,2.243,10.756,10.756,0,0,0-2.8,5.063,24.222,24.222,0,0,0-.884,6.11,11.392,11.392,0,0,0,.582,4.617,6.528,6.528,0,0,0,6.429,3.7,2.052,2.052,0,0,0,2-2,2.015,2.015,0,0,0-2-2,5.052,5.052,0,0,1-.7.012q-.354-.032-.044,0c-.134-.024-.267-.053-.4-.087a2.307,2.307,0,0,1-1.088-.5c.088.064-.353-.341-.426-.441.019.026-.3-.908-.053-.071-.072-.247-.138-.489-.193-.741-.124-.56,0,.234-.028-.153-.011-.155-.031-.309-.043-.464-.036-.465-.049-.932-.048-1.4a25.281,25.281,0,0,1,.168-2.76,13.328,13.328,0,0,1,1.666-5.271c.065-.1.133-.2.2-.3q-.2.254.012-.008c.113-.128.227-.251.349-.37.163-.142.164-.15,0-.022.11-.076.224-.148.341-.215.133-.076.55-.282.561-.286a10.166,10.166,0,0,1,1.653-.512,3.485,3.485,0,0,1,1.316-.149c2.575.085,2.572-3.916,0-4Z"></path><path class="c" d="M197.627,152.43q-3.62,5.434-7.37,10.78a2.011,2.011,0,0,0,.717,2.737,2.055,2.055,0,0,0,2.737-.718q3.765-5.336,7.37-10.78a2.013,2.013,0,0,0-.718-2.736,2.046,2.046,0,0,0-2.736.717Z"></path><path class="c" d="M211.587,131.62c-2.708,3.859-5.33,7.775-7.94,11.7a2.015,2.015,0,0,0,.717,2.737,2.048,2.048,0,0,0,2.737-.718c2.61-3.925,5.232-7.842,7.94-11.7a2.01,2.01,0,0,0-.718-2.736,2.051,2.051,0,0,0-2.736.717Z"></path><path class="c" d="M208.366,144.387a18.548,18.548,0,0,0-4.877-3.785,6.49,6.49,0,0,0-4.375-.837,4.722,4.722,0,0,0-3.189,2.553,8.2,8.2,0,0,0-.246,4.983,41.675,41.675,0,0,0,1.186,4.863c.336,1.14.724,2.262,1.071,3.4a2,2,0,0,0,3.858-1.063c-.653-2.135-1.371-4.242-1.881-6.419-.165-.7-.312-1.409-.422-2.123a1.234,1.234,0,0,1-.04-.274c0-.014.039.428.028.2-.007-.15-.033-.3-.045-.45a8.187,8.187,0,0,1-.029-.872c0-.074.058-.306.021-.357.034.046-.05.581-.007.128.006-.07.116-.344,0-.082a2.793,2.793,0,0,1,.142-.257c.163-.275-.279.283.106-.134,0,0,.231-.231.093-.095-.165.161.276-.131.055-.043-.162.065.471-.089.3-.074.265-.023.135-.028.391.039.183.048.561.18.65.22a12.607,12.607,0,0,1,2.2,1.38l.234.174c.263.194,0-.009.149.115.21.169.419.34.623.516a14,14,0,0,1,1.171,1.127,2,2,0,0,0,2.828-2.828Z"></path><path class="c" d="M55.183,249.956c10.336-2.454,20.637-5.06,30.945-7.629q20.11-5.01,40.211-10.061,7.5-1.882,15-3.771c2.494-.63,1.437-4.488-1.064-3.858q-15.9,4.011-31.813,7.988-19.98,5-39.969,9.962C63.7,243.77,58.917,244.96,54.12,246.1c-2.5.595-1.444,4.453,1.063,3.858Z"></path><path class="c" d="M171.866,196.608c9.193-2.363,18.312-5.012,27.5-7.4,2.489-.647,1.434-4.506-1.064-3.857-9.188,2.387-18.306,5.037-27.5,7.4-2.491.64-1.435,4.5,1.064,3.857Z"></path><path class="c" d="M233.108,128.725c-2.6,1.748-5.411,3.16-8.006,4.93a73.2,73.2,0,0,0-7.831,6.13A43.812,43.812,0,0,0,205.9,155.132a127.5,127.5,0,0,0-5.525,17.449c-1.713,6.595-3.229,13.238-4.835,19.859-.789,3.251-1.552,6.519-2.524,9.722a85.787,85.787,0,0,1-3.488,9.117,2.066,2.066,0,0,0,.718,2.736,2.014,2.014,0,0,0,2.736-.717,104.307,104.307,0,0,0,5.555-16.3c1.641-6.57,3.137-13.175,4.777-19.746a178.194,178.194,0,0,1,5.153-17.764,39.789,39.789,0,0,1,9.573-14.93,62.9,62.9,0,0,1,8.142-6.8c2.882-2.032,6.02-3.617,8.941-5.578,2.126-1.427.126-4.894-2.019-3.454Z"></path><path class="c" d="M286.284,128.807c7.9,6,12.879,14.877,15.155,24.416,2.047,8.576,2.5,17.259,2.755,26.034q.276,9.458.27,18.923c0,2.573,4,2.578,4,0,0-10.381-.055-20.825-.841-31.182-.756-9.954-2.767-20.323-7.95-28.977a44.739,44.739,0,0,0-11.37-12.668,2.011,2.011,0,0,0-2.736.717,2.05,2.05,0,0,0,.717,2.737Z"></path><path class="c" d="M228.831,197.812c-1.825,8.97-3.514,17.858-6.931,26.4-1.44,3.6-2.952,7.644-5.6,10.543a20.245,20.245,0,0,1-8.609,5.471c-4.664,1.519-9.7,1.166-14.7.037-8.459-1.909-16.4-5.741-24.18-9.475-4.216-2.024-8.4-4.128-12.475-6.428a42.175,42.175,0,0,1-8.13-5.4l.514,1.946c2.11-7.292,4.937-14.857,9.537-20.97a2.013,2.013,0,0,0-.717-2.737,2.049,2.049,0,0,0-2.737.718c-4.784,6.358-7.745,14.341-9.94,21.925a2,2,0,0,0,.514,1.946,40.509,40.509,0,0,0,7.469,5.18c3.717,2.171,7.549,4.142,11.41,6.041,8.251,4.058,16.732,8.246,25.648,10.612,5.724,1.519,11.932,2.328,17.744.788a25.22,25.22,0,0,0,9.082-4.615c3.345-2.637,5.364-6.134,7.093-9.954a100.5,100.5,0,0,0,5.455-15.112c1.417-5.221,2.337-10.554,3.415-15.85.511-2.513-3.343-3.588-3.857-1.064Z"></path><path class="c" d="M257.832,252.186c.5-10.433,1.71-20.805,2.483-31.218.323-4.357,2.656-8.061,6.97-9.325,4.64-1.36,9.289-2.687,13.932-4.035q15.144-4.4,30.284-8.811c2.052-.6,4.3-1.594,6.461-1.58a6.961,6.961,0,0,1,5.047,2.226c1.467,1.6,1.6,3.408,1.442,5.472q-.317,4.161-.607,8.324c-.659,9.514-1.129,19.039-1.78,28.553-.176,2.569,3.825,2.559,4,0,.607-8.87,1.051-17.75,1.648-26.621q.289-4.3.613-8.591c.206-2.743.405-5.244-.9-7.767a10.945,10.945,0,0,0-12.162-5.268c-4.991,1.213-9.915,2.877-14.847,4.313q-8.145,2.37-16.29,4.739-7.761,2.256-15.525,4.5c-2.405.7-4.781,1.3-6.81,2.839a13.528,13.528,0,0,0-4.32,5.676c-1.171,2.83-1.179,5.88-1.422,8.89s-.52,5.987-.8,8.978c-.588,6.227-1.111,12.455-1.411,18.7-.124,2.573,3.876,2.566,4,0Z"></path><path class="c" d="M184.618,203.585c-2.942-.874-5.965-1.527-8.944-2.258-4.589-1.127-9.181-2.24-13.787-3.294-1.6-.367-3.209-.752-4.83-1.037a2.057,2.057,0,0,0-2.46,1.4,2.017,2.017,0,0,0,1.4,2.461c3.541.623,7.046,1.542,10.542,2.376q6.681,1.593,13.344,3.261c1.225.308,2.463.592,3.675.952,2.472.735,3.529-3.124,1.063-3.857Z"></path><path class="c" d="M244.29,75.982c1.8-1.525,4.94-2.179,6.43.126,1.363,2.11.916,4.87.188,7.113-1.527,4.706-5.513,7.4-10.109,8.688-2.475.691-1.424,4.552,1.064,3.857,4.957-1.386,9.56-4.23,11.886-8.98a16.154,16.154,0,0,0,1.825-7.807c-.173-2.929-1.376-6.091-4.138-7.5-3.422-1.741-7.181-.7-9.975,1.672a2.017,2.017,0,0,0,0,2.828,2.042,2.042,0,0,0,2.829,0Z"></path><path class="c" d="M212.641,66.569c-.809,1.678-1.152,5.785,1.96,6.65,4.194.66,5.237-4.2,4.212-6.738C217.974,64.406,214.71,63.065,212.641,66.569Z"></path><path class="c" d="M233.832,118.643c-.557-1.684-1.211-3.331-1.933-4.951q-.339-.76-.7-1.51c-.073-.152-.14-.31-.222-.457-.215-.389.268.657-.038-.069a4.025,4.025,0,0,0-3.907-2.533c-1.493.064-2.913.326-4.428.248a26.456,26.456,0,0,1-9.419-2.225,10.234,10.234,0,0,1-5.38-6.2,37.291,37.291,0,0,1-1.588-11.032,12.391,12.391,0,0,0-.85-4.95,13.746,13.746,0,0,0-2.7-3.811c-.692-.754-1.458-1.493-.934-2.545.627-1.261,2.118-1.584,3.206-2.311a13.277,13.277,0,0,0,4.8-6.467c2.566-6.581,1.724-13.833,3.392-20.6.616-2.5-3.24-3.565-3.857-1.063-1.535,6.228-.991,12.755-2.819,18.922-.66,2.227-1.722,4.656-3.787,5.918-1.315.8-2.664,1.331-3.677,2.562a5.763,5.763,0,0,0-1.344,4.87c.663,2.9,3.722,4.31,4.443,7.212a28.584,28.584,0,0,1,.243,4.776,54.84,54.84,0,0,0,.707,5.911,18.233,18.233,0,0,0,4.382,9.59c2.159,2.261,5.139,3.434,8.094,4.263a28.97,28.97,0,0,0,11.234.982c.673-.079.375-.3.671.359.165.366.35.724.522,1.087a45.089,45.089,0,0,1,2.029,5.084c.805,2.433,4.669,1.391,3.857-1.063Z"></path><path class="c" d="M210.95,88.661a19.953,19.953,0,0,1-3.253.761l.532-.072a12.124,12.124,0,0,1-3.057.041l.532.072c-.248-.034-.494-.075-.74-.125A2,2,0,1,0,203.9,93.2a16.147,16.147,0,0,0,8.112-.677,2,2,0,1,0-1.063-3.857Z"></path><path class="c" d="M209.8,45.915a38.759,38.759,0,0,0,15.153,20.6,2,2,0,1,0,2.019-3.454A34.373,34.373,0,0,1,213.66,44.852c-.749-2.455-4.611-1.408-3.857,1.063Z"></path><path class="c" d="M224.669,55.133c4.619,7.173,9.471,14.481,16.767,19.2,2.168,1.4,4.176-2.06,2.019-3.454-6.689-4.325-11.1-11.195-15.332-17.763-1.389-2.157-4.853-.154-3.454,2.019Z"></path><path class="c" d="M211.889,50.216a32.486,32.486,0,0,1,3.74-11.554,28.487,28.487,0,0,1,1.685-2.8c.1-.145.209-.287.315-.43.281-.379-.165.2.159-.2s.656-.8,1-1.184a39.269,39.269,0,0,1,17.243-11.085c14.1-4.56,30.508-2.743,41.724,7.407A47.819,47.819,0,0,1,291.634,53c2.346,8.6,1.666,17.571.021,26.252a77.651,77.651,0,0,0-1.643,12.728,48.7,48.7,0,0,0,.838,9.668c.534,2.986,1.227,5.943,1.65,8.948a22.2,22.2,0,0,1,.231,5.874,11.261,11.261,0,0,1-2.273,5.042,23.523,23.523,0,0,1-8.583,6.559,35.874,35.874,0,0,1-11.181,2.828c-9.493,1.092-19.966.572-28.784-3.421a28.7,28.7,0,0,1-5.447-3.192,2.012,2.012,0,0,0-2.736.717,2.05,2.05,0,0,0,.717,2.737c8.029,6.047,19,7.643,28.79,7.594a60.9,60.9,0,0,0,14.926-1.763,30.946,30.946,0,0,0,10.449-4.975c3.477-2.491,6.558-5.752,7.754-9.975,1.092-3.853.207-8.229-.5-12.079-.556-3.021-1.29-6.033-1.62-9.083a46.84,46.84,0,0,1,.249-11.384c.566-4.126,1.473-8.176,1.961-12.318a60.185,60.185,0,0,0,.337-15.391,51.992,51.992,0,0,0-12.443-26.973,41.986,41.986,0,0,0-17.788-12.216,48.941,48.941,0,0,0-25.142-1.689c-14.23,2.656-27.7,11.5-32.128,25.8a41.981,41.981,0,0,0-1.4,6.935,2.009,2.009,0,0,0,2,2,2.052,2.052,0,0,0,2-2Z"></path><path class="c" d="M237.234,126.123q-3.372,1.635-6.6,3.55a2,2,0,0,0,2.019,3.454q3.224-1.914,6.6-3.55a2.012,2.012,0,0,0,.718-2.737,2.052,2.052,0,0,0-2.737-.717Z"></path><path class="c" d="M243.784,94.337a56.682,56.682,0,0,1,1.865,10.438c.038.863.039,1.727.01,2.591q-.019.6-.057,1.206c-.007.116-.133,1.353-.048.8a14.567,14.567,0,0,1-.808,2.843,28.209,28.209,0,0,1-3.94,7.059c-1.506,1.982-3.45,4.029-5.884,4.8s-1.4,4.643,1.064,3.857c6.125-1.954,10.178-8.509,12.427-14.167,2.609-6.563.784-13.907-.772-20.5-.591-2.5-4.449-1.444-3.857,1.064Z"></path></svg>