<svg xmlns="http://www.w3.org/2000/svg" width="395.21" height="269.215" viewBox="0 0 395.21 269.215"><defs><style>.a{fill:#fff;}.b{fill:#fcdc4a;}.c{fill:#211715;}</style></defs><path class="a" d="M393.343,7.791a6.125,6.125,0,0,0-6.08-6.174c-36.556.036-334.168.289-379.254.314a6.015,6.015,0,0,0-5.963,6.06C2,41.962,1.663,227.39,1.611,261.052a6.127,6.127,0,0,0,6.071,6.191c36.661.042,343.446.331,379.842.374a6.129,6.129,0,0,0,6.087-6.185C393.586,223.609,393.38,39.62,393.343,7.791Zm-285.706,212.3.68-.014-98.3-.08c.051-27.287.379-178.189.427-205.726.005-2.715,2.628-4.911,5.869-4.912,44.371-.02,326.679-.226,362.656-.254,3.3,0,5.978,2.236,5.982,5,.037,25.8.239,175.536.265,206.2C383.832,220.305,218.031,220.182,107.637,220.091Z"></path><path class="a" d="M385.2,220.889c-11.736,0-244.89-.187-268.219-.187,0,7.343-.063,5.614-.063,11.87,10.278,0,258.68.13,268.282.13Z"></path><path class="a" d="M116.24,216.245a10.019,10.019,0,0,0-9.93,10.4c0,8.127,5.872,10.494,9.93,10.494,4.814,0,9.929-2.368,9.929-10.494A10.019,10.019,0,0,0,116.24,216.245Z"></path><path class="a" d="M108.317,220.077l-98.3-.08c.051-27.287.379-178.188.427-205.726.005-2.715,2.628-4.911,5.869-4.912,44.371-.02,326.679-.226,362.656-.254,3.3,0,5.978,2.236,5.982,5,.037,25.8.239,175.536.265,206.2-1.379,0-167.18-.123-277.574-.214"></path><path class="b" d="M106.31,226.644a10.694,10.694,0,0,1,1.6-5.766c-22.667-.04-88.479-.176-98.087-.176,0,7.343-.031,5.614-.031,11.87,4.228,0,74.45.094,98.016.122A11.492,11.492,0,0,1,106.31,226.644Z" style="fill: rgb(149, 139, 139);"></path><path class="c" d="M394.943,7.791A7.854,7.854,0,0,0,387.788.039c-.97-.074-1.959-.021-2.931-.02l-7,.007L357.3.044,294.9.1,215.741.166l-82.3.068L61.818.292Q37.994.31,14.167.327C11.6.329,8.485-.092,6,.605,2.428,1.606.492,4.873.445,8.43c-.018,1.358,0,2.718-.006,4.077Q.42,24.62.4,36.731.336,74.613.268,112.5L.121,196.728q-.053,29.73-.1,59.461c-.007,4.31-.492,9.185,3.931,11.671,2.424,1.363,5.555.985,8.26.988l17.314.018,57.03.056,75.794.073,81.45.079,74,.072,53.445.053,14.864.016a9.69,9.69,0,0,0,5.578-1.235c2.815-1.841,3.527-4.748,3.525-7.892q0-4.893-.008-9.786-.029-33.492-.066-66.983-.045-42.817-.093-85.636Q395,62.241,394.964,26.8l-.021-19.008a1.6,1.6,0,0,0-3.2,0l.057,51.1q.045,40.578.089,81.157.043,39.948.084,79.9.015,14.547.028,29.1l.009,10.152c0,2.577-.031,5.426-2.892,6.536a10.411,10.411,0,0,1-3.687.287q-19.414-.022-38.829-.041l-64.652-.063-78.546-.076-79.048-.076-67.777-.067-43.23-.043c-1.85,0-3.724.082-5.572-.006-5.451-.261-4.563-6.186-4.557-10.039q.019-12.395.042-24.789.065-37.477.13-74.955.073-41.675.146-83.349Q3.589,43,3.637,13.48c.006-3.834-.854-9.822,4.612-9.949,2.253-.053,4.513,0,6.767,0l20.372-.015q30.483-.023,60.964-.048l77.78-.064L255.5,3.332l71.859-.062,49.252-.043,6.964-.007c3.5,0,7.96-.265,8.168,4.571C391.831,9.843,395.031,9.854,394.943,7.791Z"></path><path class="c" d="M108.317,218.477q-46.036-.037-92.073-.075-3.116,0-6.232,0l1.6,1.6q.025-13.662.055-27.325l.093-43.984q.053-25.207.107-50.415.049-23.309.1-46.617.033-16.3.066-32.592c0-1.561-.1-3.166.008-4.724.243-3.4,3.912-3.381,6.5-3.382l9.618-.005,28.459-.018,38.2-.026,44.866-.031,48.249-.034,48.994-.035,46.463-.033,40.861-.03,32.188-.024,20.445-.016c2.19,0,4.878-.174,6.106,2.063.767,1.4.363,3.815.365,5.381l.018,13.316q.029,20.14.055,40.28l.066,49.879.063,49.16q.024,19.062.045,38.124l.012,11.4,1.6-1.6q-8.141,0-16.28-.013l-41.471-.034-58.484-.049-67.611-.055-67.943-.056-8.163-.007a1.6,1.6,0,0,0,0,3.2l67.74.056,67.843.056,60.041.049,44.2.036c6.574.006,13.195.244,19.766.016.12,0,.241,0,.362,0a1.625,1.625,0,0,0,1.6-1.6q-.012-14.722-.033-29.445-.027-22.932-.057-45.865-.033-25.633-.067-51.265-.03-23.124-.062-46.246l-.042-30.719c0-2.559.1-5.038-1.881-7.014-2.031-2.026-4.695-2.247-7.382-2.245l-8.436.006-26.672.02-37.113.028-44.4.032-48.753.035-49.523.035q-23.672.018-47.343.033l-42.177.029-33.487.022-21.838.012c-3.44,0-7.223,1.031-8.41,4.708-.574,1.778-.3,3.984-.3,5.841L8.805,31.971Q8.763,52.5,8.72,73.034,8.668,98.119,8.614,123.2q-.053,24.46-.1,48.92-.039,18.647-.077,37.293Q8.421,214.707,8.412,220a1.622,1.622,0,0,0,1.6,1.6q31.866,0,63.734.052l34.571.028a1.6,1.6,0,0,0,0-3.2Z"></path><path class="c" d="M345.784,242.769c-5.332-.007-10.663-.183-15.994-.187a1.624,1.624,0,0,0-1.6,1.6q0,5.936-.006,11.87a1.623,1.623,0,0,0,1.6,1.6c4.564,0,9.128.076,13.692.114.769.006,1.538.015,2.308.016a1.623,1.623,0,0,0,1.6-1.6V244.369a1.6,1.6,0,0,0-3.2,0v11.813l1.6-1.6c-4.553,0-9.106-.076-13.658-.113-.781-.007-1.562-.016-2.342-.017l1.6,1.6q0-5.934.006-11.87l-1.6,1.6c5.331,0,10.662.18,15.994.187A1.6,1.6,0,0,0,345.784,242.769Z"></path><path class="c" d="M22.826,249.288c0-1.589,0-3.178,0-3.686a1.352,1.352,0,0,0-1.357-1.353H20.16a1.356,1.356,0,0,0-1.357,1.38c.019,1.1.019,8.49,0,9.585a1.356,1.356,0,0,0,1.357,1.38h1.31a1.352,1.352,0,0,0,1.357-1.353C22.826,254.734,22.826,250.877,22.826,249.288Z"></path><path class="c" d="M29.836,249.288c0-1.589,0-3.178,0-3.686a1.352,1.352,0,0,0-1.357-1.353H27.17a1.356,1.356,0,0,0-1.357,1.38c.019,1.1.019,8.49,0,9.585a1.356,1.356,0,0,0,1.357,1.38h1.31a1.352,1.352,0,0,0,1.357-1.353C29.836,254.734,29.836,250.877,29.836,249.288Z"></path><path class="c" d="M53.818,252.268V245.91a.749.749,0,0,0-.751-.749h-.724a.751.751,0,0,0-.751.764c.01.606.01,8.388,0,8.994a.75.75,0,0,0,.751.763h.724a.748.748,0,0,0,.751-.748Z"></path><path class="c" d="M42.65,254.869a.48.48,0,0,0,.754.326c1.227-.785,5.625-3.919,5.951-4.117a.955.955,0,0,0,.414-.656.98.98,0,0,0-.414-.656c-.326-.2-4.724-3.332-5.951-4.117a.48.48,0,0,0-.754.325C42.647,246.891,42.647,253.959,42.65,254.869Z"></path><path class="c" d="M70.579,253.568c-.432,0-1.836,0-2.848,0a1.123,1.123,0,0,1-1.058-1.038v-4.617a1.2,1.2,0,0,1,1.072-1.065c.764,0,2.089-.014,2.849-.014.741-.481,3.594-2.566,5.567-3.859a.67.67,0,0,1,1.041.561c-.007,3.093-.032,10.8-.041,13.8a.672.672,0,0,1-1.075.538C74.338,256.577,71.044,253.9,70.579,253.568Z"></path><path class="c" d="M363.177,240.849h-4.634a1.623,1.623,0,0,0-1.6,1.6c0,1.118-.006,2.237-.006,3.355a1.6,1.6,0,0,0,3.2,0c0-1.118.006-2.237.006-3.355l-1.6,1.6h4.634a1.6,1.6,0,0,0,0-3.2Z"></path><path class="c" d="M371.01,244.049h4.634l-1.6-1.6c0,1.118.006,2.237.006,3.355a1.6,1.6,0,0,0,3.2,0c0-1.118-.006-2.237-.006-3.355a1.623,1.623,0,0,0-1.6-1.6H371.01a1.6,1.6,0,1,0,0,3.2Z"></path><path class="c" d="M363.177,255.542h-4.634l1.6,1.6c0-1.118-.006-2.236-.006-3.354a1.6,1.6,0,0,0-3.2,0c0,1.118.006,2.236.006,3.354a1.623,1.623,0,0,0,1.6,1.6h4.634a1.6,1.6,0,0,0,0-3.2Z"></path><path class="c" d="M371.01,258.742h4.634a1.623,1.623,0,0,0,1.6-1.6c0-1.118.006-2.236.006-3.354a1.6,1.6,0,0,0-3.2,0c0,1.118-.006,2.236-.006,3.354l1.6-1.6H371.01a1.6,1.6,0,1,0,0,3.2Z"></path><path class="c" d="M8.412,220.305v11.753a1.623,1.623,0,0,0,1.6,1.6q5.6,0,11.2.013l22.6.031,26.825.038,23.546.032c4.273.006,8.553.083,12.825.016.166,0,.333,0,.5,0a1.6,1.6,0,0,0,0-3.2q-5.523,0-11.046-.013l-22.517-.031-26.821-.037-23.618-.033q-6.485-.009-12.971-.016h-.523l1.6,1.6V220.305a1.6,1.6,0,0,0-3.2,0Z"></path><path class="c" d="M125.682,233.348q4.6,0,9.192,0l19.682.009,27.747.014,33.05.017,35.891.019,36.184.019,34.044.017,29.192.015,21.7.011,11.772,0h1.078a1.623,1.623,0,0,0,1.6-1.6V220.305a1.6,1.6,0,0,0-3.2,0v11.573l1.6-1.6q-4.506,0-9.012,0l-19.541-.01-27.645-.014-32.986-.017-35.867-.018-36.2-.019-34.1-.018-29.285-.015-21.829-.011-11.942,0h-1.125a1.6,1.6,0,0,0,0,3.2Z"></path><path class="c" d="M116.246,214.654a11.658,11.658,0,0,0-11.144,8.787c-1.223,4.959.3,10.768,4.787,13.555a12.929,12.929,0,0,0,11.206.9c4.914-1.945,6.986-7,6.653-12.056a11.755,11.755,0,0,0-11.5-11.188c-2.06-.027-2.061,3.173,0,3.2a8.431,8.431,0,0,1,8.125,6.728c.784,3.6-.189,8.156-3.652,9.994a9.781,9.781,0,0,1-8.044.275c-3.465-1.457-4.846-4.943-4.755-8.526a8.52,8.52,0,0,1,8.326-8.471C118.3,217.827,118.309,214.627,116.246,214.654Z"></path><path class="c" d="M79.556,248.069a.4.4,0,0,1,.469-.387,3.013,3.013,0,0,1,2.271,3.246,2.61,2.61,0,0,1-2.281,2.8.4.4,0,0,1-.459-.387Z"></path><path class="c" d="M87.122,250.734a8.231,8.231,0,0,0-6.566-7.886.666.666,0,0,0-.771.631c-.01.242-.022.5-.031.732a.658.658,0,0,0,.512.664c1.83.455,4.53,3.07,4.553,5.83-.023,2.76-2.723,5.376-4.553,5.83a.659.659,0,0,0-.512.665c.009.236.021.49.031.732a.667.667,0,0,0,.771.631A8.168,8.168,0,0,0,87.122,250.734Z"></path></svg>